# xmcd CD database file
#
# Track frame offsets:
#	150
#	18367
#	32345
#	45605
#	66212
#	78320
#	90145
#	106275
#	116617
#	131202
#	145320
#	158422
#	172465
#	185337
#	201105
#	213507
#	225527
#	240072
#	254405
#	269350
#	282115
#
# Disc length: 3948 seconds
#
# Revision: 1
# Processed by: cddbd v1.5.1PL0 Copyright (c) Steve Scherf et al.
# Submitted via: CDex 1.51
#
DISCID=190f6a15
DTITLE=Fats Waller - Kings of the Blues
DYEAR=2001
DGENRE=Jazz
TTITLE0=Ain't Misbehavin'
TTITLE1=TwoSleepy People
TTITLE2=Blue Because Of You
TTITLE3=Honeysuckle Rose
TTITLE4=Whose Honey Are You
TTITLE5=Lulu's Back In Town
TTITLE6=I'm Gonna Sit Right Down And Write My Self A Letter
TTITLE7=Hold Tight (Want Some Seafood Mama)
TTITLE8=You're Not The Only Oyster In The Stew
TTITLE9=I Ain't Got Nobody
TTITLE10=Sweet Sue, Just You
TTITLE11=Just As Long As The World Goes Round And Round
TTITLE12=Don't Let It Bother You
TTITLE13=Somebody Stole My Girl
TTITLE14=I Wish I Were Twins
TTITLE15=The Minor Drag
TTITLE16=Baby Brown
TTITLE17=I Got Rhythm
TTITLE18=Breakin' The Ice
TTITLE19=Have A Little Dream On Me
TTITLE20=Dinah
EXTD=YEAR: 2001
EXTT0=
EXTT1=
EXTT2=
EXTT3=
EXTT4=
EXTT5=
EXTT6=
EXTT7=
EXTT8=
EXTT9=
EXTT10=
EXTT11=
EXTT12=
EXTT13=
EXTT14=
EXTT15=
EXTT16=
EXTT17=
EXTT18=
EXTT19=
EXTT20=
PLAYORDER=
